<svg width="32" height="33" viewBox="0 0 32 33" fill="none" xmlns="http://www.w3.org/2000/svg">
<g id="icon/crown">
<path id="Vector" d="M30.481 10.0237C30.2554 9.82705 29.9764 9.70184 29.6795 9.664C29.3826 9.62617 29.0812 9.67742 28.8135 9.81124L22.5372 12.9362L17.2972 4.23249C17.1625 4.00915 16.9724 3.8244 16.7453 3.69615C16.5182 3.56791 16.2618 3.50052 16.001 3.50052C15.7402 3.50052 15.4838 3.56791 15.2567 3.69615C15.0295 3.8244 14.8394 4.00915 14.7047 4.23249L9.46472 12.94L3.19097 9.81499C2.9239 9.68235 2.6236 9.63155 2.32776 9.66896C2.03192 9.70637 1.75371 9.83032 1.52806 10.0253C1.30241 10.2202 1.13936 10.4775 1.05938 10.7647C0.979392 11.052 0.986035 11.3565 1.07847 11.64L5.70347 25.81C5.74997 25.9523 5.82785 26.0824 5.93136 26.1907C6.03487 26.2989 6.16137 26.3825 6.30151 26.4353C6.44166 26.4881 6.59187 26.5087 6.74106 26.4957C6.89025 26.4827 7.0346 26.4363 7.16347 26.36C7.19472 26.3412 10.391 24.5 16.001 24.5C21.611 24.5 24.8072 26.3412 24.836 26.3587C24.9649 26.4358 25.1095 26.4828 25.2591 26.4963C25.4086 26.5098 25.5593 26.4894 25.6999 26.4367C25.8405 26.3839 25.9675 26.3002 26.0713 26.1918C26.1751 26.0833 26.2532 25.9528 26.2997 25.81L30.9247 11.6437C31.0198 11.3602 31.0284 11.0547 30.9494 10.7662C30.8704 10.4777 30.7073 10.2193 30.481 10.0237ZM21.981 20.1C21.9402 20.3313 21.8192 20.5409 21.6393 20.692C21.4594 20.8431 21.2321 20.926 20.9972 20.9262C20.9386 20.9262 20.88 20.9211 20.8222 20.9112C17.6281 20.3629 14.3639 20.3629 11.1697 20.9112C11.0404 20.9341 10.9078 20.9312 10.7796 20.9028C10.6513 20.8743 10.5299 20.8209 10.4223 20.7456C10.205 20.5935 10.0571 20.3612 10.011 20.1C9.96489 19.8388 10.0245 19.5699 10.1766 19.3526C10.3288 19.1353 10.561 18.9873 10.8222 18.9412C14.2463 18.3529 17.7456 18.3529 21.1697 18.9412C21.2995 18.9635 21.4237 19.0111 21.535 19.0814C21.6464 19.1517 21.7427 19.2434 21.8186 19.351C21.8944 19.4587 21.9483 19.5803 21.977 19.7088C22.0057 19.8373 22.0088 19.9703 21.986 20.1H21.981Z" fill="#E9B953"/>
</g>
</svg>
