<svg width="104" height="104" viewBox="0 0 104 104" fill="none" xmlns="http://www.w3.org/2000/svg">
<g id="Frame">
<path id="Vector" d="M91.1495 41.9279C89.6413 40.3517 88.0811 38.7275 87.493 37.2993C86.9489 35.9912 86.9169 33.8229 86.8849 31.7226C86.8249 27.8182 86.7609 23.3936 83.6845 20.3173C80.6082 17.2409 76.1836 17.1769 72.2792 17.1169C70.1789 17.0849 68.0107 17.0529 66.7025 16.5088C65.2783 15.9207 63.6501 14.3605 62.0739 12.8524C59.3136 10.2 56.1772 7.19568 52.0007 7.19568C47.8242 7.19568 44.6918 10.2 41.9275 12.8524C40.3513 14.3605 38.7271 15.9207 37.2989 16.5088C35.9988 17.0529 33.8225 17.0849 31.7223 17.1169C27.8178 17.1769 23.3933 17.2409 20.3169 20.3173C17.2405 23.3936 17.1965 27.8182 17.1165 31.7226C17.0845 33.8229 17.0525 35.9912 16.5084 37.2993C15.9204 38.7235 14.3602 40.3517 12.852 41.9279C10.1997 44.6882 7.19531 47.8246 7.19531 52.0011C7.19531 56.1776 10.1997 59.31 12.852 62.0743C14.3602 63.6505 15.9204 65.2747 16.5084 66.7029C17.0525 68.011 17.0845 70.1793 17.1165 72.2795C17.1765 76.184 17.2405 80.6085 20.3169 83.6849C23.3933 86.7613 27.8178 86.8253 31.7223 86.8853C33.8225 86.9173 35.9908 86.9493 37.2989 87.4934C38.7231 88.0815 40.3513 89.6416 41.9275 91.1498C44.6878 93.8021 47.8242 96.8065 52.0007 96.8065C56.1772 96.8065 59.3096 93.8021 62.0739 91.1498C63.6501 89.6416 65.2743 88.0815 66.7025 87.4934C68.0107 86.9493 70.1789 86.9173 72.2792 86.8853C76.1836 86.8253 80.6082 86.7613 83.6845 83.6849C86.7609 80.6085 86.8249 76.184 86.8849 72.2795C86.9169 70.1793 86.9489 68.011 87.493 66.7029C88.0811 65.2787 89.6413 63.6505 91.1495 62.0743C93.8018 59.314 96.8061 56.1776 96.8061 52.0011C96.8061 47.8246 93.8018 44.6922 91.1495 41.9279ZM70.2669 44.6642L47.8642 67.0669C47.567 67.3645 47.214 67.6005 46.8255 67.7616C46.437 67.9226 46.0205 68.0055 45.6 68.0055C45.1794 68.0055 44.7629 67.9226 44.3744 67.7616C43.9859 67.6005 43.6329 67.3645 43.3357 67.0669L33.7345 57.4658C33.134 56.8652 32.7966 56.0507 32.7966 55.2015C32.7966 54.3522 33.134 53.5377 33.7345 52.9372C34.335 52.3367 35.1495 51.9993 35.9988 51.9993C36.8481 51.9993 37.6625 52.3367 38.2631 52.9372L45.6 60.2781L65.7384 40.1357C66.0357 39.8383 66.3887 39.6024 66.7772 39.4415C67.1657 39.2806 67.5821 39.1978 68.0027 39.1978C68.4232 39.1978 68.8396 39.2806 69.2281 39.4415C69.6166 39.6024 69.9696 39.8383 70.2669 40.1357C70.5643 40.433 70.8001 40.786 70.9611 41.1745C71.122 41.563 71.2048 41.9794 71.2048 42.3999C71.2048 42.8204 71.122 43.2368 70.9611 43.6253C70.8001 44.0139 70.5643 44.3669 70.2669 44.6642Z" fill="url(#paint0_radial_514_3171)"/>
</g>
<defs>
<radialGradient id="paint0_radial_514_3171" cx="0" cy="0" r="1" gradientUnits="userSpaceOnUse" gradientTransform="translate(51.9999 52.001) rotate(89.9999) scale(58.3421 15691.7)">
<stop stop-color="#FFD35C"/>
<stop offset="1" stop-color="#E3A726"/>
</radialGradient>
</defs>
</svg>
